<svg xmlns="http://www.w3.org/2000/svg" xmlns:svg="http://www.w3.org/2000/svg" id="svg2" width="470" height="161" version="1.1" xml:space="preserve"><metadata id="metadata8"/><defs id="defs6"><clipPath id="clipPath18" clipPathUnits="userSpaceOnUse"><path id="path20" d="m 0,841.89 595.28,0 L 595.28,0 0,0 0,841.89 z"/></clipPath><clipPath id="clipPath38" clipPathUnits="userSpaceOnUse"><path id="path40" d="m 0,841.89 595.28,0 L 595.28,0 0,0 0,841.89 z"/></clipPath><clipPath id="clipPath46" clipPathUnits="userSpaceOnUse"><path id="path48" d="m 252.486,471.238 71.409,0 0,-100.417 -71.409,0 0,100.417 z"/></clipPath><clipPath id="clipPath62" clipPathUnits="userSpaceOnUse"><path id="path64" d="m 294.816,471.238 104.969,0 0,-100.417 -104.969,0 0,100.417 z"/></clipPath><clipPath id="clipPath78" clipPathUnits="userSpaceOnUse"><path id="path80" d="m 382.758,471.238 61.506,0 0,-100.417 -61.506,0 0,100.417 z"/></clipPath><clipPath id="clipPath94" clipPathUnits="userSpaceOnUse"><path id="path96" d="m 419.605,471.337 66.899,0 0,-100.615 -66.899,0 0,100.615 z"/></clipPath><clipPath id="clipPath18-4" clipPathUnits="userSpaceOnUse"><path id="path20-5" d="m 0,841.89 595.28,0 L 595.28,0 0,0 0,841.89 z"/></clipPath><clipPath id="clipPath38-3" clipPathUnits="userSpaceOnUse"><path id="path40-6" d="m 0,841.89 595.28,0 L 595.28,0 0,0 0,841.89 z"/></clipPath><clipPath id="clipPath46-5" clipPathUnits="userSpaceOnUse"><path id="path48-0" d="m 252.486,471.238 71.409,0 0,-100.417 -71.409,0 0,100.417 z"/></clipPath><clipPath id="clipPath62-6" clipPathUnits="userSpaceOnUse"><path id="path64-5" d="m 294.816,471.238 104.969,0 0,-100.417 -104.969,0 0,100.417 z"/></clipPath><clipPath id="clipPath78-3" clipPathUnits="userSpaceOnUse"><path id="path80-8" d="m 382.758,471.238 61.506,0 0,-100.417 -61.506,0 0,100.417 z"/></clipPath><clipPath id="clipPath94-2" clipPathUnits="userSpaceOnUse"><path id="path96-7" d="m 419.605,471.337 66.899,0 0,-100.615 -66.899,0 0,100.615 z"/></clipPath></defs><g id="g10" transform="matrix(1.25,0,0,-1.25,-145.37562,596.28306)"><g id="g3074"><g id="g3371"><g id="g3037" transform="translate(0.0259781,-0.94107617)"><text id="text30" x="121.134" y="-356.401" transform="scale(1,-1)"><tspan style="font-size:12.31999969px;font-variant:normal;font-weight:300;font-stretch:normal;writing-mode:lr-tb;fill:#000;fill-opacity:1;fill-rule:nonzero;stroke:none;font-family:Arial;-inkscape-font-specification:Arial" id="tspan32" x="121.134" y="-356.401">CENTER FOR TRANSPARENCY AND DIGITAL HUMAN RIGHTS</tspan></text><g id="g3139"><g id="g14"><g id="g16" clip-path="url(#clipPath18-4)"><g id="g22" transform="translate(490.0205,415.4463)"><path id="path24" d="m 0,0 c -1.446,3.839 -3.556,7.188 -6.266,9.953 -2.564,2.621 -5.664,4.893 -9.216,6.752 -3.175,1.655 -6.788,3.307 -10.758,4.916 l -6.558,2.594 c -1.86,0.714 -3.462,1.562 -4.764,2.522 -0.248,0.184 -0.26,1.079 -0.26,1.257 0,0.671 0.12,0.912 0.119,0.912 0.129,0.212 0.26,0.342 0.445,0.447 0.525,0.295 1.159,0.522 1.889,0.673 0.925,0.192 1.928,0.288 2.98,0.288 4.042,0 7.387,-0.443 9.943,-1.318 3.01,-1.032 5.666,-2.032 7.889,-2.973 l 5.019,-2.123 2.321,4.931 c 1.572,3.344 2.894,6.957 3.926,10.737 1.012,3.703 1.725,7.181 2.119,10.336 l 0.568,4.536 -4.312,1.516 c -5.087,1.79 -9.951,3.179 -14.459,4.129 -4.661,0.978 -9.541,1.476 -14.504,1.476 -2.131,0 -4.218,-0.108 -6.236,-0.321 l 0,0.222 -97.399,0 -3.923,-21.139 -3.538,21.139 -43.599,0 -0.355,-3.043 c -5.812,2.02 -12.809,3.043 -20.864,3.043 l -163.927,0 0,-111.757 168.815,0 0,14.655 5.488,-14.655 72.935,0 2.887,14.568 0.353,-14.568 77.034,0 c 1.497,-0.065 3.002,-0.1 4.474,-0.1 6.685,0 12.748,0.84 18.017,2.497 5.442,1.709 10.135,4.214 13.949,7.447 3.908,3.308 6.907,7.329 8.913,11.946 1.977,4.538 2.98,9.651 2.98,15.197 C 2.125,-8.231 1.41,-3.755 0,0" style="fill:#fff;fill-opacity:1;fill-rule:nonzero;stroke:none"/></g><g id="g26" transform="translate(210.0005,370.8213)"><path id="path28" d="m 0,0 37.302,0 0,24.063 -34.381,0 0,15.414 31.975,0 0,24.064 -31.975,0 0,12.813 34.381,0 0,24.063 -37.302,0 0,0.051 -12.689,0 -24.401,-49.63 13.663,0 -4.872,-17.484 0.28,0 c 5.613,0 10.164,-4.551 10.164,-10.165 l 0,-0.92 c 0,-5.615 -4.551,-10.165 -10.164,-10.165 l -4.02,0 c -0.727,0 -1.428,0.102 -2.112,0.249 L -37.594,0 -0.353,0 0,0 z" style="fill:#2375b6;fill-opacity:1;fill-rule:nonzero;stroke:none"/></g></g></g><g id="g34"><g id="g36" clip-path="url(#clipPath38-3)"><g id="g42"><g id="g50"><g style="opacity:.80000299" id="g52" clip-path="url(#clipPath46-5)"><g id="g54" transform="translate(279.6055,426.168)"><path id="path56" d="m 0,0 1.822,0 c 3.121,0 5.721,1.191 7.803,3.577 2.082,2.383 3.121,5.418 3.121,9.106 0,7.499 -3.924,11.25 -11.771,11.25 L 0,23.933 0,0 z m 44.289,-55.347 -29.332,0 -13.396,35.769 c -0.129,0.608 -0.358,1.409 -0.682,2.407 -0.326,0.996 -0.729,2.19 -1.203,3.577 l 0.193,-6.634 0,-35.119 -26.988,0 0,100.417 27.769,0 c 12.227,0 21.375,-2.407 27.446,-7.219 7.717,-6.158 11.576,-14.916 11.576,-26.275 0,-12.14 -5.182,-20.53 -15.543,-25.17 l 20.16,-41.753 z" style="fill:#2375b6;fill-opacity:1;fill-rule:nonzero;stroke:none"/></g></g></g></g><g id="g58"><g id="g66"><g style="opacity:.60000598" id="g68" clip-path="url(#clipPath62-6)"><g id="g70" transform="translate(399.7852,370.8213)"><path id="path72" d="m 0,0 -27.445,0 -1.106,45.786 -0.881,18.275 c -0.316,-3.512 -0.679,-6.862 -1.082,-10.047 -0.408,-3.187 -0.906,-6.279 -1.49,-9.27 L -40.875,0 -63.41,0 -70.695,44.811 c -0.434,2.601 -1.02,7.065 -1.756,13.396 -0.09,0.953 -0.283,2.904 -0.584,5.854 L -73.688,45.525 -76.094,0 l -28.875,0 11.705,100.417 33.754,0 5.66,-33.819 c 0.477,-2.777 0.899,-5.789 1.268,-9.04 0.365,-3.253 0.705,-6.787 1.008,-10.601 0.551,6.373 1.314,12.074 2.291,17.104 l 6.748,36.356 32.781,0 L 0,0 z" style="fill:#2375b6;fill-opacity:1;fill-rule:nonzero;stroke:none"/></g></g></g></g><g id="g74"><g id="g82"><g style="opacity:.39999402" id="g84" clip-path="url(#clipPath78-3)"><g id="g86" transform="translate(382.7578,370.8213)"><path id="path88" d="m 0,0 0,100.417 61.506,0 0,-24.063 -34.385,0 0,-12.813 31.977,0 0,-24.064 -31.977,0 0,-15.414 34.385,0 L 61.506,0 0,0 z" style="fill:#2375b6;fill-opacity:1;fill-rule:nonzero;stroke:none"/></g></g></g></g><g id="g90"><g id="g98"><g style="opacity:.22000098" id="g100" clip-path="url(#clipPath94-2)"><g id="g102" transform="translate(461.7227,431.7959)"><path id="path104" d="m 0,0 c 3.791,-1.537 7.197,-3.094 10.223,-4.672 3.023,-1.582 5.621,-3.477 7.785,-5.689 2.17,-2.213 3.84,-4.874 5.013,-7.989 1.17,-3.115 1.76,-6.884 1.76,-11.307 0,-4.786 -0.836,-9.097 -2.508,-12.932 -1.668,-3.84 -4.128,-7.134 -7.378,-9.886 -3.25,-2.754 -7.245,-4.876 -11.985,-6.365 -4.74,-1.489 -10.18,-2.234 -16.318,-2.234 -5.598,0 -10.541,0.453 -14.828,1.354 -4.289,0.903 -8.914,2.302 -13.881,4.198 0.361,3.159 0.994,6.52 1.898,10.088 0.901,3.566 1.985,7.2 3.25,10.903 8.305,-3.614 15.526,-5.417 21.666,-5.417 4.604,0 8.192,0.698 10.766,2.097 2.572,1.399 3.857,3.814 3.857,7.247 0,1.442 -0.269,2.684 -0.81,3.723 -0.543,1.036 -1.264,1.916 -2.168,2.642 -0.903,0.719 -1.916,1.331 -3.045,1.827 -1.133,0.494 -2.281,0.969 -3.453,1.422 l -7.584,2.844 c -3.25,1.171 -6.209,2.572 -8.871,4.197 -2.662,1.625 -4.942,3.543 -6.838,5.756 -1.895,2.211 -3.364,4.759 -4.401,7.65 -1.039,2.889 -1.558,6.274 -1.558,10.156 0,4.784 0.812,9.026 2.439,12.729 1.625,3.701 3.903,6.84 6.838,9.412 2.934,2.572 6.477,4.514 10.631,5.823 4.15,1.307 8.801,1.964 13.947,1.964 4.604,0 9.049,-0.453 13.338,-1.354 4.287,-0.904 8.869,-2.213 13.744,-3.928 -0.361,-2.891 -1.013,-6.072 -1.963,-9.546 -0.949,-3.477 -2.144,-6.75 -3.587,-9.818 -2.348,0.993 -5.102,2.032 -8.26,3.115 -3.162,1.082 -7.09,1.625 -11.782,1.625 -1.445,0 -2.824,-0.137 -4.128,-0.406 -1.313,-0.272 -2.487,-0.702 -3.526,-1.288 -1.037,-0.587 -1.871,-1.4 -2.502,-2.436 -0.633,-1.04 -0.947,-2.327 -0.947,-3.86 0,-2.621 0.855,-4.561 2.57,-5.823 1.715,-1.265 3.746,-2.349 6.094,-3.25 L 0,0 z" style="fill:#2375b6;fill-opacity:1;fill-rule:nonzero;stroke:none"/></g></g></g></g><g id="g106" transform="translate(198.6484,445.4951)"><path id="path108" d="m 0,0 c -1.59,0 -2.877,-1.289 -2.877,-2.877 0,-1.59 1.287,-2.877 2.877,-2.877 1.588,0 2.875,1.287 2.875,2.877 C 2.875,-1.289 1.588,0 0,0" style="fill:#fff;fill-opacity:1;fill-rule:nonzero;stroke:none"/></g><g id="g110" transform="translate(168.6196,371.7949)"><path id="path112" d="m 0,0 3.442,12.353 1.011,3.625 3.68,-0.789 c 0.511,-0.109 0.916,-0.16 1.275,-0.16 l 4.02,0 c 3.398,0 6.163,2.766 6.163,6.165 l 0,0.921 c 0,3.399 -2.765,6.164 -6.163,6.164 l -0.281,0 -5.267,0 1.414,5.075 3.459,12.41 -8.396,0 -6.424,0 2.834,5.764 23.557,47.915 -3.762,0 -22.581,0 -4.54,0 0,-35.964 -12.943,0 0,35.964 -27.12,0 0,-100.417 27.12,0 0,40.388 12.943,0 0,-40.388 4.54,0 1.748,0 L 0,0 z" style="fill:#2a2a3f;fill-opacity:1;fill-rule:nonzero;stroke:none"/></g></g></g></g></g></g></g></g></svg>