<svg xmlns="http://www.w3.org/2000/svg" xmlns:xlink="http://www.w3.org/1999/xlink" version="1.1"><metadata/><defs><font id="alfphabetiv" horiz-adv-x="1699"><font-face ascent="1638" descent="-410" units-per-em="2048"/><glyph horiz-adv-x="0"/><glyph horiz-adv-x="1024"/><glyph horiz-adv-x="1435"/><glyph horiz-adv-x="1435"/><glyph horiz-adv-x="1435"/><glyph d="M143 1458h289v-1032h-268zM166 0v244h244v-244h-244z" horiz-adv-x="559" unicode="!"/><glyph d="M145 1094v362h244v-362h-244zM510 1094v362l244 2v-364h-244z" horiz-adv-x="901" unicode="&quot;"/><glyph d="M145 406v176h203l43 295h-186v176h203l63 405h201l-64 -405h201l63 405h201l-63 -405h188v-176h-205l-43 -295h189v-176h-205l-62 -406h-200l61 406h-201l-61 -406h-201l62 406h-187zM549 582h201l43 295h-201z" horiz-adv-x="1343" unicode="#"/><glyph d="M139 436h291q0 -29 12.5 -55.5t33 -47t47 -32.5t55.5 -12l176 2v291h-176q-94 0 -175 34.5t-139.5 95t-91.5 139.5t-33 169q0 94 35 174t94.5 138.5t139 92t170.5 33.5h176v238h235v-238h178q86 0 166 -32.5t140.5 -91t96.5 -138.5t36 -176h-293q0 33 -13.5 61.5t-35 48 t-47 30.5t-50.5 11h-178v-297h178q88 0 168 -33.5t139.5 -92t95.5 -138.5t36 -174q0 -96 -36 -176t-96.5 -138.5t-139.5 -91t-167 -32.5h-178v-219h-235v219h-176q-92 0 -172 34t-139.5 93t-93.5 139t-34 172zM430 1020q0 -31 13.5 -57.5t33.5 -42.5q16 -20 43 -33t58 -13 h176v297h-176q-29 0 -55.5 -13t-47 -34.5t-33 -48t-12.5 -55.5zM989 289h178q27 0 53.5 13.5t49.5 33.5q18 16 30.5 43t12.5 57q0 66 -46 106t-100 40h-178v-293z" horiz-adv-x="1751" unicode="$"/><glyph d="M139 1106q0 84 32 156.5t86 127t127 86t157 31.5t157.5 -31.5t128 -86t86 -127t31.5 -156.5q0 -86 -31.5 -160t-86 -128t-127 -85t-156.5 -31h-2q-84 0 -157 31t-127 85t-86 128t-32 160zM375 1106q0 -66 47 -117t119 -51q53 0 92.5 27.5t62.5 74.5q12 27 13 66 q0 33 -13.5 62.5t-36 53t-53.5 37t-65 13.5q-33 0 -62.5 -13.5t-53.5 -36t-37 -52t-13 -64.5zM553 -33l883 1528h135l-881 -1528h-137zM1182 354q0 84 31.5 158t87 128t129 86t155.5 32q86 0 159 -32t126 -87q55 -53 87 -126t32 -159q0 -84 -32 -157.5t-86 -128t-128 -86 t-158 -31.5q-82 0 -155.5 31.5t-129 86t-87 128t-31.5 157.5zM1417 354q2 -29 12.5 -58.5t32 -54t52 -40t71.5 -15.5q53 0 91 28t65 75q12 31 12 65q0 70 -49 119t-119 49t-116 -48t-52 -120z" horiz-adv-x="2129" unicode="%"/><glyph d="M143 438q0 168 113 291q-55 57 -84 133t-29 162q0 88 34 168t93.5 139.5t140.5 94t173 34.5h149q88 0 167 -33.5t139.5 -93t96 -139.5t35.5 -170h-294q0 68 -47.5 105.5t-96.5 37.5h-149q-66 0 -107 -41t-41 -102q0 -68 42 -106.5t106 -38.5h293v-295h-293 q-37 0 -64.5 -13.5t-46 -35t-28 -47t-9.5 -50.5q0 -66 44 -107.5t104 -41.5h587q25 0 50.5 10t46 30.5t34 47t13.5 61.5v850h297v-409h375v-293h-377v-150q0 -51 38 -97t105 -46v-295q-82 0 -156.5 31.5t-134.5 83.5q-61 -53 -135 -83t-156 -30h-587q-90 0 -171 34 t-140.5 92t-94.5 139t-35 173z" horiz-adv-x="2129" unicode="&amp;"/><glyph d="M145 1094v364h244v-241z" horiz-adv-x="532" unicode="'"/><glyph d="M143 670q0 106 26 227t76 238.5t123.5 222t170.5 178.5h192q-90 -106 -147.5 -225t-89 -236t-44 -222t-12.5 -183q0 -76 13.5 -180.5t46 -221t89 -237.5t144.5 -230h-192q-98 76 -172 179.5t-123 220t-75 238.5t-26 231z" horiz-adv-x="880" unicode="("/><glyph d="M143 -201q88 109 144.5 230t89.5 237.5t46 221t13 180.5q0 78 -12 183t-44 222t-89.5 235.5t-147.5 225.5h195q96 -74 170 -178.5t123 -222t74.5 -238.5t25.5 -227q0 -109 -25.5 -230t-74.5 -237.5t-123 -221t-170 -180.5h-195z" horiz-adv-x="880" unicode=")"/><glyph d="M160 989l243 98l-243 97l102 176l205 -158l-37 256h205l-35 -256l205 160l100 -178l-239 -97l241 -98l-102 -176l-205 160l35 -258h-203l33 258l-203 -160z" horiz-adv-x="1052" unicode="*"/><glyph d="M143 539v204h392v392h204v-392h391v-204h-389v-392h-204v392h-394z" horiz-adv-x="1269" unicode="+"/><glyph d="M143 -121v365h244v-244z" horiz-adv-x="454" unicode=","/><glyph d="M143 524v244h973v-244h-973z" horiz-adv-x="1257" unicode="-"/><glyph d="M143 0v244h244v-244h-244z" horiz-adv-x="526" unicode="."/><glyph d="M18 -35l865 1528h311l-864 -1528h-312z" horiz-adv-x="1212" unicode="/"/><glyph d="M123 510v438q0 111 41 204t110.5 161.5t162.5 106.5t196 38h438q102 0 194.5 -38t163 -106.5t111.5 -161.5t41 -204v-438q0 -106 -40 -199.5t-109.5 -162t-161.5 -108.5t-199 -40h-438q-106 0 -199.5 40t-162 108.5t-108.5 161.5t-40 200zM418 510q0 -90 60.5 -152.5 t154.5 -62.5h438q45 0 86 17.5t70.5 47t47 68.5t17.5 82v438q0 43 -18.5 83t-49 71t-70.5 49t-83 18h-438q-47 0 -85 -18t-69 -49q-61 -61 -61 -154v-438z" horiz-adv-x="1703" unicode="0"/><glyph d="M53 846v411l207 201h291v-1458h-291v1044z" horiz-adv-x="692" unicode="1"/><glyph d="M129 0v291l1112 727q23 16 38 31.5t15 44.5q0 31 -21.5 52t-49.5 21h-729q-29 0 -51.5 -22.5t-22.5 -50.5h-291q0 78 29.5 144.5t81 115.5t117 76.5t137.5 27.5h729q70 0 136 -27.5t116.5 -76.5t81 -116t30.5 -144q0 -96 -46 -174t-124 -129l-762 -500h932v-291h-1458z" horiz-adv-x="1718" unicode="2"/><glyph d="M109 438h294q0 -35 13.5 -61.5t34 -47t46 -30.5t50.5 -10h588q59 0 103 42t44 107q0 25 -9 50.5t-27.5 47t-46.5 35t-64 13.5h-293v295h293q63 0 105 38.5t42 106.5q0 61 -42 102t-105 41h-588q-51 0 -97.5 -37.5t-46.5 -105.5h-294q0 90 35.5 170t96 139.5t139.5 93 t167 33.5h588q92 0 173 -34.5t140 -94t93 -139.5t34 -168q0 -86 -28.5 -162t-84.5 -133q113 -123 113 -291q0 -92 -35 -173t-95.5 -139t-140 -92t-169.5 -34h-588q-84 0 -163 33t-140.5 91t-98 139t-36.5 175z" horiz-adv-x="1697" unicode="3"/><glyph d="M33 150v292l1018 1018h292v-1018h144v-292h-144v-150h-292v150h-1014h-4zM442 442h609v609z" horiz-adv-x="1597" unicode="4"/><glyph d="M125 504h291q0 -45 16.5 -84t46 -67.5t68.5 -45t82 -16.5h438q47 0 87 16.5t68.5 46t45 68.5t16.5 82q0 53 -19.5 95t-50 70.5t-69.5 43t-78 14.5h-801l-141 141v363v221h1452v-291h-1161v-143h651q104 0 196.5 -39t162 -107.5t110.5 -163t41 -204.5q0 -104 -40 -195.5 t-108.5 -160t-160.5 -108.5t-197 -40h-442q-109 0 -201 41t-159.5 109.5t-105.5 159.5t-38 194z" horiz-adv-x="1701" unicode="5"/><glyph d="M129 442v582q0 90 34 170t93 139.5t139 93t170 33.5h586q90 0 170 -34.5t139.5 -94t94 -138.5t34.5 -169h-295q0 70 -46 106.5t-97 36.5h-586q-59 0 -101 -40t-42 -103v-170q35 10 69.5 18.5t73.5 8.5h586q92 0 172 -36t139.5 -97.5t93 -140.5t33.5 -165 q0 -92 -34.5 -172t-94 -140t-139.5 -95t-170 -35h-586q-90 0 -170 35t-139 95t-93 140t-34 172zM422 442q0 -59 40 -103t103 -44h586q59 0 102 43q41 41 41 104q0 57 -42 100.5t-101 43.5h-586q-68 0 -105.5 -45t-37.5 -99z" horiz-adv-x="1705" unicode="6"/><glyph d="M127 0l1067 1163h-1067v295h1458v-295l-1063 -1163h-395z" horiz-adv-x="1617" unicode="7"/><glyph d="M113 438q0 92 34.5 170t92.5 140q20 16 39.5 30.5t42.5 32.5q-6 2 -14.5 9t-14.5 14q-51 51 -80 118.5t-29 141.5t29 140t78 116.5t115.5 79t142.5 28.5h584q76 0 142 -28.5t115.5 -79t78 -117t28.5 -139.5q0 -86 -36 -155t-95 -128q23 -14 42.5 -30.5t39.5 -32.5 q57 -61 92 -139.5t35 -170.5q0 -94 -36 -174t-95.5 -138t-139 -92t-165.5 -34h-590q-86 0 -165 33t-139.5 91t-96 139t-35.5 175zM406 438q0 -33 13 -60.5t33.5 -47t46 -30.5t50.5 -11h590q61 0 102 47q41 41 41 102q0 23 -9 48.5t-26.5 47t-44 36t-63.5 14.5h-590 q-59 0 -101 -44t-42 -102zM477 1094q0 -31 20.5 -52.5t51.5 -21.5h584q35 0 54 20.5t19 53.5q0 31 -21.5 50t-51.5 19h-584q-16 0 -27.5 -3t-21.5 -17q-14 -10 -18.5 -21.5t-4.5 -27.5z" horiz-adv-x="1687" unicode="8"/><glyph d="M117 438h293q0 -61 42 -102t101 -41h584q59 0 104 42t45 101v168q-78 -23 -149 -22h-584q-90 0 -169 33.5t-138.5 93t-94 138.5t-34.5 171t33.5 172t92 139.5t138.5 93t172 33.5h584q92 0 171 -33t138 -90q61 -63 95 -143t34 -172v-582q0 -86 -34 -165.5t-92 -140 t-139 -96.5t-173 -36h-584q-90 0 -169 35t-138.5 95t-94 139t-34.5 169zM410 1020q0 -53 37.5 -99.5t105.5 -46.5h584q31 0 56.5 12.5t45.5 28.5q47 47 47 105q0 59 -45 104t-104 45h-584q-59 0 -101 -44t-42 -105z" horiz-adv-x="1701" unicode="9"/><glyph d="M143 0v244h244v-244h-244zM143 526v244h244v-244h-244z" horiz-adv-x="526" unicode=":"/><glyph d="M143 -121v365h244v-244zM143 526v244h244v-244h-244z" horiz-adv-x="477" unicode=";"/><glyph d="M143 616v207l965 557v-211l-784 -450l784 -451v-209z" horiz-adv-x="1249" unicode="&lt;"/><glyph d="M143 334v205h596h391v-205h-389h-598zM143 743v205h596h391v-205h-389h-598z" horiz-adv-x="1273" unicode="="/><glyph d="M143 57v209l785 451l-785 450v211l965 -557v-207z" horiz-adv-x="1249" unicode="&gt;"/><glyph d="M145 1020q0 92 34 172t93.5 139.5t139.5 93t172 33.5h587q92 0 172.5 -35t139.5 -92q57 -59 92 -139t35 -172q0 -90 -34 -169t-93.5 -139.5t-139 -95t-172.5 -34.5q-33 0 -59.5 -13.5t-44.5 -34t-28.5 -46t-10.5 -50.5v-149h-295v149q0 88 34 168t93.5 139.5t139 95.5 t171.5 36q57 0 100.5 38.5t43.5 104.5q0 70 -44 107.5t-100 37.5h-587q-55 0 -99.5 -37.5t-44.5 -107.5h-295zM727 0v88h295v-88h-295z" unicode="?"/><glyph d="M143 539v397q0 164 61.5 307t169 251t251 169t307.5 61q162 0 306 -61t251.5 -167.5t170 -251t62.5 -308.5q0 -154 -53 -289t-146 -238.5t-220 -171t-273 -85.5q-16 -4 -30.5 -5.5t-28.5 -1.5h-39v2q-70 8 -129.5 41t-103.5 84.5t-69.5 118t-25.5 144.5q0 80 29 150.5 t79 122.5t116.5 83t142.5 31q37 0 78 -11.5t110 -40.5v150q0 72 -47 122t-113 50q-57 0 -100 -38t-55 -95h-178q6 68 34.5 126t73.5 101t102.5 67.5t122.5 24.5q70 0 131.5 -27.5t106.5 -76.5t71.5 -114.5t26.5 -139.5v-580l49 43q86 88 136.5 203t50.5 250 q0 131 -50.5 247.5t-137.5 203t-203.5 136.5t-247.5 50q-133 0 -249 -50t-202 -136.5t-136 -203t-50 -247.5v-397q0 -133 50 -250t136 -203t202 -136t249 -50h201q135 0 249.5 50t200.5 136l109 -106q-111 -111 -252.5 -171.5t-306.5 -60.5h-201q-166 0 -309.5 62.5 t-250 170t-168 251t-61.5 307.5zM780 535q0 -41 15.5 -78t41 -64.5t60.5 -44t74 -16.5t72.5 16.5t59 44t41 64.5t15.5 78q0 39 -15.5 75.5t-41 64t-59 44t-72.5 16.5t-74 -16.5t-60.5 -44t-41 -64t-15.5 -75.5z" horiz-adv-x="1863" unicode="@"/><glyph d="M63 0l572 1460h317l576 -1460h-316l-86 215h-659l-88 -215h-316zM580 512h432l-215 551z" horiz-adv-x="1591" unicode="A"/><glyph d="M143 2v1456h1020q92 0 171 -33.5t138.5 -93t93 -138.5t33.5 -171q0 -86 -29.5 -158.5t-82.5 -132.5q53 -57 82.5 -132t29.5 -161q0 -92 -33.5 -171t-93 -138t-138.5 -93t-171 -34h-1020zM430 295h733q62 0 103 41t41 102q0 63 -41 104.5t-103 41.5h-733v-289zM430 877 h733q62 0 103 41q41 53 41 104q0 61 -43 105t-101 44h-733v-294z" horiz-adv-x="1722" unicode="B"/><glyph d="M123 510v440q0 106 40 198.5t109.5 162t163.5 109.5t203 40h440q102 0 195.5 -40t163 -108.5t110.5 -159.5t41 -196h-295q0 43 -17 82t-47 69t-69 47t-82 17h-440q-47 0 -87 -16t-69.5 -46t-47 -71t-17.5 -88v-440q0 -96 63.5 -155.5t157.5 -59.5h440q43 0 83 16.5t69 45 t46 66.5t17 83h144h151q0 -104 -41 -196.5t-110.5 -161t-161.5 -108.5t-197 -40h-440q-109 0 -203 40t-163.5 108.5t-109.5 161.5t-40 200z" unicode="C"/><glyph d="M143 0v1458h944q104 0 196.5 -42.5t162.5 -112.5q70 -66 109.5 -157t39.5 -202v-436q0 -104 -41 -197.5t-109.5 -162t-160.5 -108.5t-197 -40h-944zM434 291h653q45 0 85 17.5t70 48t47.5 69.5t17.5 82v436q0 43 -18.5 83t-48.5 69.5t-70 48t-83 18.5h-653v-872z" horiz-adv-x="1716" unicode="D"/><glyph d="M143 0v1169v287h1456v-287h-1169v-288h608v-293h-608v-295h1169v-293h-1456z" horiz-adv-x="1742" unicode="E"/><glyph d="M143 0v1456h1456v-289h-1173v-290h612v-293h-612v-584h-283z" horiz-adv-x="1611" unicode="F"/><glyph d="M121 508v442q0 102 40 195.5t109.5 163t161.5 110.5t197 41h442q102 0 195.5 -41t163 -110.5t110.5 -162.5t41 -196h-289q0 45 -17.5 85t-48 71t-70.5 48t-85 17h-442q-43 0 -83 -17t-71 -48t-48 -71t-17 -85v-442q0 -45 17 -84t48 -68.5t71 -46t83 -16.5h442 q45 0 85 16.5t70.5 46t48 68.5t17.5 84h-442v295h731v-295q0 -104 -41 -196.5t-110.5 -162t-162.5 -109.5t-196 -40h-442q-104 0 -196.5 40t-162 109.5t-109.5 161.5t-40 197z" horiz-adv-x="1695" unicode="G"/><glyph d="M143 0v1456h295v-577h873v577h291v-1456h-291v586h-873v-586h-295z" horiz-adv-x="1744" unicode="H"/><glyph d="M143 0v1458h289v-1458h-289z" horiz-adv-x="571" unicode="I"/><glyph d="M10 508h289q0 -45 17.5 -85t47 -68.5t69.5 -46t85 -17.5h438q45 0 86 17.5t70 46t46.5 68.5t17.5 85v948h290v-948q0 -104 -41 -196.5t-109.5 -161t-161.5 -109.5t-198 -41h-438q-104 0 -196.5 41t-161 109.5t-109.5 160.5t-41 197z" horiz-adv-x="1597" unicode="J"/><glyph d="M143 0v1454h293v-383l608 383h553l-776 -485l778 -969h-374l-652 815l-137 -88v-727h-293z" unicode="K"/><glyph d="M143 0v1458h289v-1163h1170v-295h-1459z" horiz-adv-x="1615" unicode="L"/><glyph d="M143 0v1456h293l434 -436l437 436h292v-1456h-292v1042l-234 -229h6l-209 -205l-440 434v-1042h-287z" horiz-adv-x="1742" unicode="M"/><glyph d="M143 0v1456h195h98l877 -504v504h293v-1456h-293v618l-877 504v-1122h-293z" horiz-adv-x="1748" unicode="N"/><glyph d="M123 508v438q0 104 40 197.5t108.5 162t161.5 108.5t198 40h438q104 0 197.5 -40t162 -108.5t108.5 -161.5t40 -198v-438q0 -104 -40 -197.5t-108.5 -162t-161.5 -108.5t-198 -40h-438q-104 0 -197.5 40t-162 108.5t-108.5 161.5t-40 198zM410 508q0 -45 17 -84t48 -68.5 t71 -46t85 -16.5h438q92 0 153.5 61.5t61.5 153.5v438q0 45 -16.5 85t-46 71t-68.5 48t-84 17h-438q-47 0 -85 -18t-69 -49t-49 -69t-18 -85v-438z" horiz-adv-x="1697" unicode="O"/><glyph d="M143 0v1454h944q106 0 198.5 -38.5t164.5 -108.5q70 -72 108.5 -164t38.5 -199q0 -104 -39.5 -196.5t-108.5 -162t-162 -109.5t-200 -40h-655v-436h-289zM432 729h655q95 1 156 62t62 153q0 49 -17.5 89t-48.5 70t-70 46t-82 16h-655v-436z" horiz-adv-x="1638" unicode="P"/><glyph d="M121 510v436q0 109 41 203t110.5 163.5t162.5 109.5t196 40h436q100 0 192.5 -39t163 -107.5t112.5 -163.5t42 -206v-436q0 -88 -29.5 -171t-83.5 -144l113 -195h-332l-18 27q-39 -10 -79 -18.5t-81 -8.5h-436q-106 0 -199.5 40t-162 108.5t-108.5 161.5t-40 200z M410 510q0 -43 15 -82t45 -69.5t71 -49t90 -18.5h442l-127 219h340v436q0 51 -18.5 92t-48 70t-69.5 44t-83 15h-436q-45 0 -85 -16t-71 -46t-48 -70t-17 -89v-436z" horiz-adv-x="1703" unicode="Q"/><glyph d="M143 0v1458h1020q92 -12 173 -55t139.5 -109.5t92.5 -148.5t34 -170v-21v-20q0 -59 -16.5 -119.5t-47.5 -115t-73 -99.5t-91 -76l234 -524h-322l-194 442h-654v-442h-295zM438 737h654q45 0 85 16.5t70.5 46t48 68.5t17.5 86q0 43 -18.5 83t-49.5 71t-70.5 49.5 t-82.5 18.5h-654v-439z" horiz-adv-x="1726" unicode="R"/><glyph d="M117 438h291q0 -57 45 -102t102 -45h590q23 0 48.5 10t47 29.5t35.5 47.5t14 60q0 66 -46 106t-99 40h-590q-94 0 -175 34.5t-139.5 95t-91 139.5t-32.5 169q0 94 34.5 174t94 138.5t139.5 92t170 33.5h590q86 0 166 -32.5t140 -91t96 -138.5t36 -176h-293q0 33 -13 61.5 t-34.5 48t-47.5 31t-50 11.5h-590q-29 0 -55.5 -13.5t-47 -35t-32.5 -48t-12 -55.5q0 -59 44 -102t103 -43h590q88 0 168 -34t139 -92.5t95 -138.5t36 -174q0 -96 -36 -176t-96 -138t-139 -91t-167 -33h-590q-92 0 -172 34t-139.5 93t-93 139t-33.5 172z" unicode="S"/><glyph d="M59 1169v285h1454v-285h-581v-1169h-291v1169h-582z" horiz-adv-x="1572" unicode="T"/><glyph d="M133 512v946h287v-946q0 -47 17.5 -87t48 -69.5t71.5 -46t88 -16.5h434q47 0 88 16.5t72 46t48.5 69.5t17.5 87v946h286v-946q0 -106 -40 -199.5t-109.5 -163t-162.5 -109.5t-200 -40h-434q-106 0 -199.5 40t-163 109.5t-109.5 163t-40 199.5z" horiz-adv-x="1722" unicode="U"/><glyph d="M59 1456h312l415 -1030l412 1030h311l-579 -1456h-291z" horiz-adv-x="1570" unicode="V"/><glyph d="M100 1458h299l201 -1020l231 402l234 -402l201 1020h299l-305 -1458h-297l-132 258l-163 -258h-295z" horiz-adv-x="1660" unicode="W"/><glyph d="M115 0l551 731l-545 725h364l361 -477l360 477h365l-539 -725l551 -731h-366l-371 489l-367 -489h-364z" horiz-adv-x="1697" unicode="X"/><glyph d="M49 1458h367l362 -475l352 475h369l-581 -768v-690h-291v690z" horiz-adv-x="1548" unicode="Y"/><glyph d="M143 289l1014 878h-1007v289h1456v-194v-95l-1014 -872h1014v-295h-1456v289h-7z" horiz-adv-x="1748" unicode="Z"/><glyph d="M143 -127v1663h373v-102h-137v-1459h137v-102h-373z" horiz-adv-x="655" unicode="["/><glyph d="M143 1493h312l864 -1528h-311z" horiz-adv-x="1454" unicode="\"/><glyph d="M143 -25h138v1459h-138v102h373v-1663h-373v102z" horiz-adv-x="655" unicode="]"/><glyph d="M584 1593l250 244l247 -244l-61 -61l-186 182l-185 -182zM584 1593l250 244l247 -244l-61 -61l-186 182l-185 -182z" horiz-adv-x="1705" unicode="^"/><glyph d="M0 -154h1024v-102h-1024v102z" horiz-adv-x="1024" unicode="_"/><glyph d="M63 1688l103 102l196 -193l-75 -71z" horiz-adv-x="425" unicode="`"/><glyph d="M63 0l572 1460h317l576 -1460h-316l-86 215h-659l-88 -215h-316zM580 512h432l-215 551z" horiz-adv-x="1589" unicode="a"/><glyph d="M143 2v1456h1020q92 0 171 -33.5t138.5 -93t93 -138.5t33.5 -171q0 -86 -29.5 -158.5t-82.5 -132.5q53 -57 82.5 -132t29.5 -161q0 -92 -33.5 -171t-93 -138t-138.5 -93t-171 -34h-1020zM430 295h733q62 0 103 41t41 102q0 63 -41 104.5t-103 41.5h-733v-289zM430 877 h733q62 0 103 41q41 53 41 104q0 61 -43 105t-101 44h-733v-294z" horiz-adv-x="1722" unicode="b"/><glyph d="M123 512v444q0 106 40 199.5t110.5 163.5t164.5 109.5t203 39.5h444q104 0 197.5 -41t163.5 -109.5t110.5 -160.5t40.5 -194h-297q0 43 -17 81.5t-47 68.5t-69 47.5t-82 17.5h-444q-47 0 -87 -16.5t-69.5 -46.5t-47 -70.5t-17.5 -88.5v-444q0 -96 63.5 -155.5 t157.5 -59.5h444q43 0 83 16.5t69 45t46 66.5t17 83h146h151q0 -104 -40.5 -196.5t-110.5 -161t-163 -109.5t-198 -41h-444q-109 0 -203 40t-164.5 109.5t-110.5 163t-40 199.5z" unicode="c"/><glyph d="M143 0v1458h944q104 0 196.5 -42.5t162.5 -112.5q70 -66 109.5 -157t39.5 -202v-436q0 -104 -41 -197.5t-109.5 -162t-160.5 -108.5t-197 -40h-944zM434 291h653q45 0 85 17.5t70 48t47.5 69.5t17.5 82v436q0 43 -18.5 83t-48.5 69.5t-70 48t-83 18.5h-653v-872z" horiz-adv-x="1716" unicode="d"/><glyph d="M143 0v1169v287h1456v-287h-1169v-288h608v-293h-608v-295h1169v-293h-1456z" horiz-adv-x="1742" unicode="e"/><glyph d="M143 0v1456h1456v-289h-1173v-290h612v-293h-612v-584h-283z" horiz-adv-x="1611" unicode="f"/><glyph d="M121 508v442q0 102 40 195.5t109.5 163t161.5 110.5t197 41h442q102 0 195.5 -41t163 -110.5t110.5 -162.5t41 -196h-289q0 45 -17.5 85t-48 71t-70.5 48t-85 17h-442q-43 0 -83 -17t-71 -48t-48 -71t-17 -85v-442q0 -45 17 -84t48 -68.5t71 -46t83 -16.5h442 q45 0 85 16.5t70.5 46t48 68.5t17.5 84h-442v295h731v-295q0 -104 -41 -196.5t-110.5 -162t-162.5 -109.5t-196 -40h-442q-104 0 -196.5 40t-162 109.5t-109.5 161.5t-40 197z" horiz-adv-x="1695" unicode="g"/><glyph d="M143 0v1456h295v-577h873v577h291v-1456h-291v586h-873v-586h-295z" horiz-adv-x="1744" unicode="h"/><glyph d="M143 0v1458h289v-1458h-289z" horiz-adv-x="571" unicode="i"/><glyph d="M10 508h289q0 -45 17.5 -85t47 -68.5t69.5 -46t85 -17.5h438q45 0 86 17.5t70 46t46.5 68.5t17.5 85v948h290v-948q0 -104 -41 -196.5t-109.5 -161t-161.5 -109.5t-198 -41h-438q-104 0 -196.5 41t-161 109.5t-109.5 160.5t-41 197z" horiz-adv-x="1597" unicode="j"/><glyph d="M143 0v1454h293v-383l608 383h553l-776 -485l778 -969h-374l-652 815l-137 -88v-727h-293z" unicode="k"/><glyph d="M143 0v1458h289v-1163h1170v-295h-1459z" horiz-adv-x="1615" unicode="l"/><glyph d="M143 0v1456h293l434 -436l437 436h292v-1456h-292v1042l-234 -229h6l-209 -205l-440 434v-1042h-287z" horiz-adv-x="1742" unicode="m"/><glyph d="M143 0v1456h195h98l877 -504v504h293v-1456h-293v618l-877 504v-1122h-293z" horiz-adv-x="1748" unicode="n"/><glyph d="M123 508v438q0 104 40 197.5t108.5 162t161.5 108.5t198 40h438q104 0 197.5 -40t162 -108.5t108.5 -161.5t40 -198v-438q0 -104 -40 -197.5t-108.5 -162t-161.5 -108.5t-198 -40h-438q-104 0 -197.5 40t-162 108.5t-108.5 161.5t-40 198zM410 508q0 -45 17 -84t48 -68.5 t71 -46t85 -16.5h438q92 0 153.5 61.5t61.5 153.5v438q0 45 -16.5 85t-46 71t-68.5 48t-84 17h-438q-47 0 -85 -18t-69 -49t-49 -69t-18 -85v-438z" unicode="o"/><glyph d="M143 0v1454h944q106 0 198.5 -38.5t164.5 -108.5q70 -72 108.5 -164t38.5 -199q0 -104 -39.5 -196.5t-108.5 -162t-162 -109.5t-200 -40h-655v-436h-289zM432 729h655q95 1 156 62t62 153q0 49 -17.5 89t-48.5 70t-70 46t-82 16h-655v-436z" horiz-adv-x="1638" unicode="p"/><glyph d="M123 510v436q0 109 41 203t110.5 163.5t162.5 109.5t196 40h436q100 0 192.5 -39t163 -107.5t112.5 -163.5t42 -206v-436q0 -88 -29.5 -171t-83.5 -144l113 -195h-332l-18 27q-39 -10 -79 -18.5t-81 -8.5h-436q-106 0 -199.5 40t-162 108.5t-108.5 161.5t-40 200z M412 510q0 -43 15 -82t45 -69.5t71 -49t90 -18.5h442l-127 219h340v436q0 51 -18.5 92t-48 70t-69.5 44t-83 15h-436q-45 0 -85 -16t-71 -46t-48 -70t-17 -89v-436z" horiz-adv-x="1705" unicode="q"/><glyph d="M143 0v1458h1020q92 -12 173 -55t139.5 -109.5t92.5 -148.5t34 -170v-21v-20q0 -59 -16.5 -119.5t-47.5 -115t-73 -99.5t-91 -76l234 -524h-322l-194 442h-654v-442h-295zM438 737h654q45 0 85 16.5t70.5 46t48 68.5t17.5 86q0 43 -18.5 83t-49.5 71t-70.5 49.5 t-82.5 18.5h-654v-439z" horiz-adv-x="1726" unicode="r"/><glyph d="M117 438h291q0 -57 45 -102t102 -45h590q23 0 48.5 10t47 29.5t35.5 47.5t14 60q0 66 -46 106t-99 40h-590q-94 0 -175 34.5t-139.5 95t-91 139.5t-32.5 169q0 94 34.5 174t94 138.5t139.5 92t170 33.5h590q86 0 166 -32.5t140 -91t96 -138.5t36 -176h-293q0 33 -13 61.5 t-34.5 48t-47.5 31t-50 11.5h-590q-29 0 -55.5 -13.5t-47 -35t-32.5 -48t-12 -55.5q0 -59 44 -102t103 -43h590q88 0 168 -34t139 -92.5t95 -138.5t36 -174q0 -96 -36 -176t-96 -138t-139 -91t-167 -33h-590q-92 0 -172 34t-139.5 93t-93 139t-33.5 172z" unicode="s"/><glyph d="M59 1169v285h1454v-285h-581v-1169h-291v1169h-582z" horiz-adv-x="1572" unicode="t"/><glyph d="M133 512v946h287v-946q0 -47 17.5 -87t48 -69.5t71.5 -46t88 -16.5h434q47 0 88 16.5t72 46t48.5 69.5t17.5 87v946h286v-946q0 -106 -40 -199.5t-109.5 -163t-162.5 -109.5t-200 -40h-434q-106 0 -199.5 40t-163 109.5t-109.5 163t-40 199.5z" horiz-adv-x="1722" unicode="u"/><glyph d="M61 1456h312l415 -1030l412 1030h311l-579 -1456h-291z" horiz-adv-x="1570" unicode="v"/><glyph d="M100 1458h299l201 -1020l231 402l234 -402l201 1020h299l-305 -1458h-297l-132 258l-163 -258h-295z" horiz-adv-x="1660" unicode="w"/><glyph d="M115 0l551 731l-545 725h364l361 -477l360 477h365l-539 -725l551 -731h-366l-371 489l-367 -489h-364z" horiz-adv-x="1697" unicode="x"/><glyph d="M49 1458h367l362 -475l352 475h369l-581 -768v-690h-291v690z" horiz-adv-x="1548" unicode="y"/><glyph d="M141 289l1014 878h-1008v289h1457v-289l-1014 -872h1014v-295h-1457v289h-6z" horiz-adv-x="1746" unicode="z"/><glyph d="M141 592v151q76 33 113 109t37 192v379q0 63 25.5 123t68.5 105t101.5 71.5t125.5 26.5v-188q-31 0 -55.5 -13.5t-42.5 -33t-28.5 -44t-10.5 -47.5v-411q0 -86 -20.5 -147.5t-46 -103.5t-51 -64.5t-33.5 -28.5q8 -6 33.5 -30t51 -65t46 -102t20.5 -147v-412 q0 -25 10.5 -48.5t28.5 -44t43 -32.5t55 -12v-189q-68 0 -126 27t-101 72t-68.5 103t-25.5 124v379q0 117 -37 192.5t-113 108.5z" horiz-adv-x="757" unicode="{"/><glyph d="M750 0v1536h235v-1536h-235z" horiz-adv-x="1744" unicode="|"/><glyph d="M141 -225q31 0 55.5 12t43 32.5t29 44t10.5 48.5v412q0 86 19 147t46 103t51.5 65t34.5 29q-10 6 -34.5 28.5t-51.5 64.5t-46 103.5t-19 147.5v411q0 23 -10.5 47.5t-29 44t-43 33t-55.5 13.5v188q68 0 126.5 -26.5t101.5 -71.5t68.5 -104.5t25.5 -123.5v-379 q0 -117 37 -192.5t112 -108.5v-151q-76 -33 -112.5 -108.5t-36.5 -192.5v-379q0 -66 -25.5 -124t-68.5 -103t-101.5 -72t-126.5 -27v189z" horiz-adv-x="757" unicode="}"/><glyph horiz-adv-x="1705" unicode="~"/><glyph d="M420 1528v102h289v-102h-289zM915 1528v102h289v-102h-289z" unicode="¨"/><glyph d="M141 1071q0 80 31 151.5t83 124t124 83t151 30.5q80 0 151 -30.5t124 -83.5t83 -123t30 -152q0 -80 -31 -150.5t-83 -123t-123 -83t-151 -30.5q-82 0 -152.5 30.5t-122.5 83t-83 123t-31 150.5zM217 1071q0 -66 23.5 -123t65.5 -99t99.5 -66.5t124.5 -24.5 q66 0 123.5 24.5t98.5 67.5q90 86 90 221q0 66 -23.5 123t-65.5 99t-99.5 66.5t-123.5 24.5q-68 0 -125 -24.5t-99 -66.5t-65.5 -99t-23.5 -123zM340 1014v114q0 59 41 95.5t92 36.5h115q51 0 91 -37t40 -93h-78q0 23 -15.5 38.5t-37.5 15.5h-115q-27 -1 -41 -15t-14 -41 v-114q0 -23 13 -38t42 -15h115q23 0 38 14t15 39h78q0 -53 -39 -91t-92 -38h-115q-57 0 -95 38t-38 91z" horiz-adv-x="1060" unicode="©"/><glyph d="M57 635l512 512v-256l-256 -256l256 -256v-256zM602 635l512 512v-256l-256 -256l256 -256v-256z" horiz-adv-x="1255" unicode="«"/><glyph d="M143 524v244h973v-244h-973z" horiz-adv-x="1257" unicode="­"/><glyph d="M143 1071q0 80 30 149.5t82 122t123 83t150 30.5q80 0 150 -30t123 -83t82.5 -122.5t29.5 -149.5t-30.5 -149.5t-82.5 -121.5t-122 -83t-150 -31t-150.5 31t-122.5 83t-82 121.5t-30 149.5zM217 1071q0 -66 24.5 -122t66.5 -98t98.5 -66.5t121.5 -24.5q66 0 122.5 24.5 t99.5 67.5q41 43 65.5 98.5t24.5 120.5q0 66 -24.5 122t-66.5 98t-98.5 66.5t-122.5 24.5t-122 -24.5t-98 -66.5t-66.5 -98t-24.5 -122zM344 887v370h258q49 -10 80 -43.5t31 -85.5q0 -53 -37 -92l-21 -16l58 -133h-80l-49 112h-168v-112h-72zM416 1073h168q23 1 39 17 t16 38q0 23 -16.5 39.5t-38.5 16.5h-168v-111z" horiz-adv-x="1056" unicode="®"/><glyph d="M102 1178q0 63 25 120.5t67 99.5t98 66.5t120 24.5q63 0 120.5 -24.5t99.5 -66.5t66.5 -99.5t24.5 -120.5t-24.5 -120t-66.5 -98.5t-99.5 -66.5t-120.5 -25t-119.5 25t-98.5 66.5t-67 98t-25 120.5zM236 1178q0 -37 14 -69t37.5 -55.5t55.5 -38t69 -14.5t69.5 14.5t56 38 t38 55.5t14.5 69q0 74 -52.5 126t-125.5 52q-37 0 -69 -14.5t-55.5 -38t-37.5 -56.5t-14 -69z" horiz-adv-x="825" unicode="°"/><glyph d="M758 1597l192 199l103 -102l-226 -172z" horiz-adv-x="1617" unicode="´"/><glyph d="M145 123v256l256 256l-256 256v256l512 -512zM690 123v256l256 256l-256 256v256l512 -512z" horiz-adv-x="1255" unicode="»"/><glyph d="M49 0l567 1456h314l567 -1456h-311l-88 219h-656l-82 -219h-311zM545 1688l102 102l197 -193l-76 -71zM555 510h432l-219 545z" horiz-adv-x="1540" unicode="À"/><glyph d="M41 0l571 1456h306l571 -1456h-313l-89 221h-651l-82 -221h-313zM547 510h432l-219 543zM694 1604l193 192l98 -102l-225 -162z" horiz-adv-x="1536" unicode="Á"/><glyph d="M53 0l572 1458h313l573 -1458h-309l-88 215h-659l-88 -215h-314zM537 1602l247 247l248 -247l-63 -62l-185 186l-186 -186zM569 510h430l-215 551z" horiz-adv-x="1564" unicode="Â"/><glyph d="M63 0l572 1460h317l576 -1460h-316l-86 215h-659l-88 -215h-316zM424 1649q18 31 39.5 59.5t47.5 51t58.5 35.5t71.5 13q43 0 82 -18t73.5 -39.5t66.5 -39t63 -17.5q33 0 53 24.5t33 50.5l137 -67q-31 -63 -80 -114.5t-125 -51.5q-49 0 -90 17.5t-75 39t-63.5 39 t-53.5 17.5q-39 0 -61.5 -22.5t-39.5 -51.5zM580 512h432l-215 551z" horiz-adv-x="1591" unicode="Ã"/><glyph d="M57 0l572 1460h317l576 -1460h-316l-86 215h-659l-88 -215h-316zM344 1534v98h293v-98h-293zM573 512h433l-215 551zM930 1534v98h293v-98h-293z" horiz-adv-x="1574" unicode="Ä"/><glyph d="M63 0l572 1460h317l576 -1460h-316l-86 215h-659l-88 -215h-316zM578 1731q0 43 16 81.5t45 67.5t67.5 45.5t81.5 16.5t82 -16.5t68 -45.5t45 -67.5t16 -81.5t-16 -82t-45 -68t-68 -45t-82 -16t-81.5 16t-67.5 45t-45 68t-16 82zM580 512h432l-215 551zM659 1731 q0 -53 38 -91t91 -38t91.5 37.5t38.5 91.5q0 53 -38 91t-92 38q-53 0 -91 -38t-38 -91z" horiz-adv-x="1591" unicode="Å"/><glyph d="M90 0l572 1456h1779v-289h-1167v-286h602v-295h-602v-293h1167v-293h-1460v217h-489l-89 -217h-313zM604 510h377v657h-119z" horiz-adv-x="2584" unicode="Æ"/><glyph d="M123 510v438q0 106 40 199.5t109.5 162t163.5 108.5t201 40h440q98 0 190.5 -39t163 -106.5t112.5 -159.5t42 -199h-297q0 41 -17.5 80t-47 70t-67.5 50.5t-79 19.5h-440q-49 0 -89 -19.5t-68.5 -50.5t-44 -72t-15.5 -84v-438q0 -43 15.5 -82t43 -68.5t67.5 -47t91 -17.5 h440q43 0 82 16.5t67.5 45t45 66.5t16.5 81h297q0 -106 -43 -198.5t-114.5 -161t-162.5 -107.5t-188 -39h-151v-274h-146l43 274h-186q-104 0 -197.5 40t-164 109.5t-111.5 162.5t-41 200zM123 510v438q0 106 40 199.5t109.5 162t163.5 108.5t201 40h440q98 0 190.5 -39 t163 -106.5t112.5 -159.5t42 -199h-297q0 41 -17.5 80t-47 70t-67.5 50.5t-79 19.5h-440q-49 0 -89 -19.5t-68.5 -50.5t-44 -72t-15.5 -84v-438q0 -43 15.5 -82t43 -68.5t67.5 -47t91 -17.5h440q43 0 82 16.5t67.5 45t45 66.5t16.5 81h297q0 -106 -43 -198.5t-114.5 -161 t-162.5 -107.5t-188 -39h-151v-274h-146l43 274h-186q-104 0 -197.5 40t-164 109.5t-111.5 162.5t-41 200z" unicode="Ç"/><glyph d="M109 0v1163v293h1447v-293h-1157v-289h600v-284h-600v-299h1157v-291h-1447zM610 1692l101 102l196 -197l-73 -71z" horiz-adv-x="1613" unicode="È"/><glyph d="M100 0v1161v295h1448v-295h-1155v-287h596v-284h-596v-295h1155v-295h-1448zM756 1597l192 199l103 -102l-226 -172z" horiz-adv-x="1619" unicode="É"/><glyph d="M109 0v1163v293h1447v-293h-1157v-289h600v-284h-600v-299h1157v-291h-1447zM584 1593l250 244l247 -244l-61 -61l-186 182l-185 -182z" horiz-adv-x="1630" unicode="Ê"/><glyph d="M143 0v1169v287h1456v-287h-1169v-288h608v-293h-608v-295h1169v-293h-1456zM418 1534v98h293v-98h-293zM1004 1534v98h292v-98h-292z" horiz-adv-x="1742" unicode="Ë"/><glyph d="M51 1694l103 96l192 -195l-72 -67zM133 0v1456h291v-1456h-291z" horiz-adv-x="528" unicode="Ì"/><glyph d="M111 0v1458h292v-1458h-292zM180 1597l201 197l98 -96l-221 -170z" horiz-adv-x="532" unicode="Í"/><glyph d="M59 1593l248 248l246 -248l-61 -61l-185 186l-186 -186zM162 0v1456h289v-1456h-289z" horiz-adv-x="612" unicode="Î"/><glyph d="M29 1575v100h288v-100h-288zM274 0v1456h293v-1456h-293zM524 1569v100h289v-100h-289z" horiz-adv-x="571" unicode="Ï"/><glyph d="M143 0v1456h195h98l877 -504v504h293v-1456h-293v618l-877 504v-1122h-293zM502 1649q18 31 39.5 59.5t47 51t58.5 35.5t72 13q43 0 82 -18t73.5 -39.5t66.5 -39t63 -17.5q33 0 53 24.5t33 50.5l137 -67q-31 -63 -80 -114.5t-125 -51.5q-49 0 -90 17.5t-75 39t-63.5 39 t-54.5 17.5q-39 0 -61.5 -22.5t-38.5 -51.5z" horiz-adv-x="1748" unicode="Ñ"/><glyph d="M123 508v438q0 104 40 197.5t108.5 162t161.5 108.5t198 40h438q104 0 197.5 -40t162 -108.5t108.5 -161.5t40 -198v-438q0 -104 -40 -197.5t-108.5 -162t-161.5 -108.5t-198 -40h-438q-104 0 -197.5 40t-162 108.5t-108.5 161.5t-40 198zM410 508q0 -45 17 -84t48 -68.5 t71 -46t85 -16.5h438q92 0 153.5 61.5t61.5 153.5v438q0 45 -16.5 85t-46 71t-68.5 48t-84 17h-438q-47 0 -85 -18t-69 -49t-49 -69t-18 -85v-438zM596 1692l102 102l195 -197l-70 -71z" horiz-adv-x="1697" unicode="Ò"/><glyph d="M123 508v438q0 104 40 197.5t108.5 162t161.5 108.5t198 40h438q104 0 197.5 -40t162 -108.5t108.5 -161.5t40 -198v-438q0 -104 -40 -197.5t-108.5 -162t-161.5 -108.5t-198 -40h-438q-104 0 -197.5 40t-162 108.5t-108.5 161.5t-40 198zM410 508q0 -45 17 -84t48 -68.5 t71 -46t85 -16.5h438q92 0 153.5 61.5t61.5 153.5v438q0 45 -16.5 85t-46 71t-68.5 48t-84 17h-438q-47 0 -85 -18t-69 -49t-49 -69t-18 -85v-438zM694 1604l193 192l98 -102l-225 -162z" horiz-adv-x="1697" unicode="Ó"/><glyph d="M123 508v438q0 104 40 197.5t108.5 162t161.5 108.5t198 40h438q104 0 197.5 -40t162 -108.5t108.5 -161.5t40 -198v-438q0 -104 -40 -197.5t-108.5 -162t-161.5 -108.5t-198 -40h-438q-104 0 -197.5 40t-162 108.5t-108.5 161.5t-40 198zM410 508q0 -45 17 -84t48 -68.5 t71 -46t85 -16.5h438q92 0 153.5 61.5t61.5 153.5v438q0 45 -16.5 85t-46 71t-68.5 48t-84 17h-438q-47 0 -85 -18t-69 -49t-49 -69t-18 -85v-438zM584 1593l250 244l247 -244l-61 -61l-186 182l-185 -182z" horiz-adv-x="1697" unicode="Ô"/><glyph d="M123 508v438q0 104 40 197.5t108.5 162t161.5 108.5t198 40h438q104 0 197.5 -40t162 -108.5t108.5 -161.5t40 -198v-438q0 -104 -40 -197.5t-108.5 -162t-161.5 -108.5t-198 -40h-438q-104 0 -197.5 40t-162 108.5t-108.5 161.5t-40 198zM410 508q0 -45 17 -84t48 -68.5 t71 -46t85 -16.5h438q92 0 153.5 61.5t61.5 153.5v438q0 45 -16.5 85t-46 71t-68.5 48t-84 17h-438q-47 0 -85 -18t-69 -49t-49 -69t-18 -85v-438zM475 1649q18 31 40 59.5t47.5 51t58 35.5t71.5 13q43 0 82 -18t74 -39.5t66.5 -39t62.5 -17.5q33 0 53.5 24.5t32.5 50.5 l137 -67q-31 -63 -80 -114.5t-125 -51.5q-49 0 -90 17.5t-74.5 39t-63.5 39t-54 17.5q-39 0 -61.5 -22.5t-39.5 -51.5z" horiz-adv-x="1697" unicode="Õ"/><glyph d="M123 508v438q0 104 40 197.5t108.5 162t161.5 108.5t198 40h438q104 0 197.5 -40t162 -108.5t108.5 -161.5t40 -198v-438q0 -104 -40 -197.5t-108.5 -162t-161.5 -108.5t-198 -40h-438q-104 0 -197.5 40t-162 108.5t-108.5 161.5t-40 198zM410 508q0 -45 17 -84t48 -68.5 t71 -46t85 -16.5h438q92 0 153.5 61.5t61.5 153.5v438q0 45 -16.5 85t-46 71t-68.5 48t-84 17h-438q-47 0 -85 -18t-69 -49t-49 -69t-18 -85v-438zM418 1534v98h293v-98h-293zM1004 1534v98h292v-98h-292z" horiz-adv-x="1697" unicode="Ö"/><glyph d="M100 514v942h291v-942q0 -49 17.5 -90t47 -70.5t68.5 -46t82 -16.5h436q41 0 81 16.5t71 46t50.5 70.5t19.5 90v942h284v-942q0 -111 -42 -205t-111.5 -162.5t-162 -107.5t-190.5 -39h-436q-98 0 -190 39t-162 107.5t-112 162.5t-42 205zM596 1692l102 102l195 -197 l-70 -71z" horiz-adv-x="1638" unicode="Ù"/><glyph d="M92 514v942h291v-942q0 -49 17.5 -90t47 -70.5t68.5 -46t82 -16.5h436q41 0 81 16.5t71 46t50 70.5t19 90v942h285v-942q0 -111 -42 -205t-111.5 -162.5t-162 -107.5t-190.5 -39h-436q-98 0 -190.5 39t-162 107.5t-111.5 162.5t-42 205zM745 1604l193 192l98 -102 l-225 -162z" horiz-adv-x="1638" unicode="Ú"/><glyph d="M98 514v942h291v-942q0 -49 17.5 -90t47 -70.5t68.5 -46t82 -16.5h436q41 0 81 16.5t71 46t50.5 70.5t19.5 90v942h284v-942q0 -111 -42 -205t-111.5 -162.5t-162 -107.5t-190.5 -39h-436q-98 0 -190 39t-162 107.5t-112 162.5t-42 205zM582 1602l247 247l248 -247 l-63 -62l-185 186l-186 -186z" horiz-adv-x="1644" unicode="Û"/><glyph d="M133 512v946h287v-946q0 -47 17.5 -87t48 -69.5t71.5 -46t88 -16.5h434q47 0 88 16.5t72 46t48.5 69.5t17.5 87v946h286v-946q0 -106 -40 -199.5t-109.5 -163t-162.5 -109.5t-200 -40h-434q-106 0 -199.5 40t-163 109.5t-109.5 163t-40 199.5zM418 1534v98h293v-98h-293z M1004 1534v98h292v-98h-292z" horiz-adv-x="1722" unicode="Ü"/><glyph d="M49 0l567 1456h314l567 -1456h-311l-88 219h-656l-82 -219h-311zM545 1688l102 102l197 -193l-76 -71zM555 510h432l-219 545z" horiz-adv-x="1540" unicode="à"/><glyph d="M41 0l571 1456h306l571 -1456h-313l-89 221h-651l-82 -221h-313zM547 510h432l-219 543zM694 1604l193 192l98 -102l-225 -162z" horiz-adv-x="1536" unicode="á"/><glyph d="M53 0l572 1458h313l573 -1458h-309l-88 215h-659l-88 -215h-314zM537 1602l247 247l248 -247l-63 -62l-185 186l-186 -186zM569 510h430l-215 551z" horiz-adv-x="1564" unicode="â"/><glyph d="M63 0l572 1460h317l576 -1460h-316l-86 215h-659l-88 -215h-316zM424 1649q18 31 39.5 59.5t47.5 51t58.5 35.5t71.5 13q43 0 82 -18t73.5 -39.5t66.5 -39t63 -17.5q33 0 53 24.5t33 50.5l137 -67q-31 -63 -80 -114.5t-125 -51.5q-49 0 -90 17.5t-75 39t-63.5 39 t-53.5 17.5q-39 0 -61.5 -22.5t-39.5 -51.5zM580 512h432l-215 551z" horiz-adv-x="1589" unicode="ã"/><glyph d="M51 0l572 1458h313l573 -1458h-309l-88 215h-659l-88 -215h-314zM381 1583v103h287v-103h-287zM567 510h430l-215 551zM872 1579v102h291v-102h-291z" horiz-adv-x="1560" unicode="ä"/><glyph d="M63 0l572 1460h317l576 -1460h-316l-86 215h-659l-88 -215h-316zM578 1731q0 43 16 81.5t45 67.5t67.5 45.5t81.5 16.5t82 -16.5t68 -45.5t45 -67.5t16 -81.5t-16 -82t-45 -68t-68 -45t-82 -16t-81.5 16t-67.5 45t-45 68t-16 82zM580 512h432l-215 551zM659 1731 q0 -53 38 -91t91 -38t91.5 37.5t38.5 91.5q0 53 -38 91t-92 38q-53 0 -91 -38t-38 -91z" horiz-adv-x="1589" unicode="å"/><glyph d="M90 0l572 1456h1779v-289h-1167v-286h602v-295h-602v-293h1167v-293h-1460v217h-489l-89 -217h-313zM604 510h377v657h-119z" horiz-adv-x="2584" unicode="æ"/><glyph d="M123 510v438q0 106 40 199.5t109.5 162t163.5 108.5t201 40h440q98 0 190.5 -39t163 -106.5t112.5 -159.5t42 -199h-297q0 41 -17.5 80t-47 70t-67.5 50.5t-79 19.5h-440q-49 0 -89 -19.5t-68.5 -50.5t-44 -72t-15.5 -84v-438q0 -43 15.5 -82t43 -68.5t67.5 -47t91 -17.5 h440q43 0 82 16.5t67.5 45t45 66.5t16.5 81h297q0 -106 -43 -198.5t-114.5 -161t-162.5 -107.5t-188 -39h-151v-274h-146l43 274h-186q-104 0 -197.5 40t-164 109.5t-111.5 162.5t-41 200z" unicode="ç"/><glyph d="M109 0v1163v293h1447v-293h-1157v-289h600v-284h-600v-299h1157v-291h-1447zM610 1692l101 102l196 -197l-73 -71z" horiz-adv-x="1613" unicode="è"/><glyph d="M100 0v1161v295h1448v-295h-1155v-287h596v-284h-596v-295h1155v-295h-1448zM756 1597l192 199l103 -102l-226 -172z" horiz-adv-x="1619" unicode="é"/><glyph d="M109 0v1163v293h1447v-293h-1157v-289h600v-284h-600v-299h1157v-291h-1447zM584 1593l250 244l247 -244l-61 -61l-186 182l-185 -182z" horiz-adv-x="1630" unicode="ê"/><glyph d="M131 0v1165v293h1452v-293h-1159v-288h600v-287h-600v-297h1159v-293h-1452zM418 1534v98h293v-98h-293zM1004 1534v98h292v-98h-292z" horiz-adv-x="1677" unicode="ë"/><glyph d="M51 1694l103 96l192 -195l-72 -67zM133 0v1456h291v-1456h-291z" horiz-adv-x="528" unicode="ì"/><glyph d="M111 0v1458h292v-1458h-292zM180 1597l201 197l98 -96l-221 -170z" horiz-adv-x="532" unicode="í"/><glyph d="M59 1593l248 248l246 -248l-61 -61l-185 186l-186 -186zM162 0v1456h289v-1456h-289z" horiz-adv-x="612" unicode="î"/><glyph d="M29 1575v100h288v-100h-288zM274 0v1456h293v-1456h-293zM524 1569v100h289v-100h-289z" horiz-adv-x="841" unicode="ï"/><glyph d="M154 0v1456h194h98l877 -504v504h293v-1456h-293v618l-877 504v-1122h-292zM512 1649q18 31 39.5 59.5t47.5 51t58.5 35.5t71.5 13q43 0 82 -18t74 -39.5t66.5 -39t62.5 -17.5q33 0 53 24.5t33 50.5l137 -67q-31 -63 -80 -114.5t-125 -51.5q-49 0 -90 17.5t-74.5 39 t-63.5 39t-54 17.5q-39 0 -61.5 -22.5t-39.5 -51.5z" horiz-adv-x="1759" unicode="ñ"/><glyph d="M123 508v438q0 104 40 197.5t108.5 162t161.5 108.5t198 40h438q104 0 197.5 -40t162 -108.5t108.5 -161.5t40 -198v-438q0 -104 -40 -197.5t-108.5 -162t-161.5 -108.5t-198 -40h-438q-104 0 -197.5 40t-162 108.5t-108.5 161.5t-40 198zM410 508q0 -45 17 -84t48 -68.5 t71 -46t85 -16.5h438q92 0 153.5 61.5t61.5 153.5v438q0 45 -16.5 85t-46 71t-68.5 48t-84 17h-438q-47 0 -85 -18t-69 -49t-49 -69t-18 -85v-438zM596 1692l102 102l195 -197l-70 -71z" unicode="ò"/><glyph d="M123 508v438q0 104 40 197.5t108.5 162t161.5 108.5t198 40h438q104 0 197.5 -40t162 -108.5t108.5 -161.5t40 -198v-438q0 -104 -40 -197.5t-108.5 -162t-161.5 -108.5t-198 -40h-438q-104 0 -197.5 40t-162 108.5t-108.5 161.5t-40 198zM410 508q0 -45 17 -84t48 -68.5 t71 -46t85 -16.5h438q92 0 153.5 61.5t61.5 153.5v438q0 45 -16.5 85t-46 71t-68.5 48t-84 17h-438q-47 0 -85 -18t-69 -49t-49 -69t-18 -85v-438zM694 1604l193 192l98 -102l-225 -162z" unicode="ó"/><glyph d="M123 508v438q0 104 40 197.5t108.5 162t161.5 108.5t198 40h438q104 0 197.5 -40t162 -108.5t108.5 -161.5t40 -198v-438q0 -104 -40 -197.5t-108.5 -162t-161.5 -108.5t-198 -40h-438q-104 0 -197.5 40t-162 108.5t-108.5 161.5t-40 198zM410 508q0 -45 17 -84t48 -68.5 t71 -46t85 -16.5h438q92 0 153.5 61.5t61.5 153.5v438q0 45 -16.5 85t-46 71t-68.5 48t-84 17h-438q-47 0 -85 -18t-69 -49t-49 -69t-18 -85v-438zM584 1593l250 244l247 -244l-61 -61l-186 182l-185 -182z" unicode="ô"/><glyph d="M123 508v438q0 104 40 197.5t108.5 162t161.5 108.5t198 40h438q104 0 197.5 -40t162 -108.5t108.5 -161.5t40 -198v-438q0 -104 -40 -197.5t-108.5 -162t-161.5 -108.5t-198 -40h-438q-104 0 -197.5 40t-162 108.5t-108.5 161.5t-40 198zM410 508q0 -45 17 -84t48 -68.5 t71 -46t85 -16.5h438q92 0 153.5 61.5t61.5 153.5v438q0 45 -16.5 85t-46 71t-68.5 48t-84 17h-438q-47 0 -85 -18t-69 -49t-49 -69t-18 -85v-438zM477 1649q18 31 40 59.5t47.5 51t58 35.5t71.5 13q43 0 82 -18t74 -39.5t66.5 -39t62.5 -17.5q33 0 53.5 24.5t32.5 50.5 l137 -67q-31 -63 -80 -114.5t-125 -51.5q-49 0 -90 17.5t-74.5 39t-63.5 39t-54 17.5q-39 0 -61.5 -22.5t-39.5 -51.5z" unicode="õ"/><glyph d="M123 508v438q0 104 40 197.5t108.5 162t161.5 108.5t198 40h438q104 0 197.5 -40t162 -108.5t108.5 -161.5t40 -198v-438q0 -104 -40 -197.5t-108.5 -162t-161.5 -108.5t-198 -40h-438q-104 0 -197.5 40t-162 108.5t-108.5 161.5t-40 198zM410 508q0 -45 17 -84t48 -68.5 t71 -46t85 -16.5h438q92 0 153.5 61.5t61.5 153.5v438q0 45 -16.5 85t-46 71t-68.5 48t-84 17h-438q-47 0 -85 -18t-69 -49t-49 -69t-18 -85v-438zM418 1534v98h293v-98h-293zM1004 1534v98h292v-98h-292z" unicode="ö"/><glyph d="M100 514v942h291v-942q0 -49 17.5 -90t47 -70.5t68.5 -46t82 -16.5h436q41 0 81 16.5t71 46t50.5 70.5t19.5 90v942h284v-942q0 -111 -42 -205t-111.5 -162.5t-162 -107.5t-190.5 -39h-436q-98 0 -190 39t-162 107.5t-112 162.5t-42 205zM596 1692l102 102l195 -197 l-70 -71z" horiz-adv-x="1638" unicode="ù"/><glyph d="M92 514v942h291v-942q0 -49 17.5 -90t47 -70.5t68.5 -46t82 -16.5h436q41 0 81 16.5t71 46t50 70.5t19 90v942h285v-942q0 -111 -42 -205t-111.5 -162.5t-162 -107.5t-190.5 -39h-436q-98 0 -190.5 39t-162 107.5t-111.5 162.5t-42 205zM745 1604l193 192l98 -102 l-225 -162z" horiz-adv-x="1722" unicode="ú"/><glyph d="M133 512v946h287v-946q0 -47 17.5 -87t48 -69.5t71.5 -46t88 -16.5h434q47 0 88 16.5t72 46t48.5 69.5t17.5 87v946h286v-946q0 -106 -40 -199.5t-109.5 -163t-162.5 -109.5t-200 -40h-434q-106 0 -199.5 40t-163 109.5t-109.5 163t-40 199.5zM614 1602l248 247l248 -247 l-63 -62l-185 186l-186 -186z" horiz-adv-x="1722" unicode="û"/><glyph d="M119 514v942h291v-942q0 -49 18 -90t48 -70.5t69 -46t80 -16.5h440q39 0 79 16.5t70.5 46t50 70.5t19.5 90v942h287v-942q0 -109 -41 -202t-109.5 -162.5t-161 -109.5t-194.5 -40h-440q-102 0 -194.5 40t-161 109.5t-109.5 163t-41 201.5zM453 1528v102h288v-102h-288z M948 1528v102h289v-102h-289z" horiz-adv-x="1689" unicode="ü"/><glyph d="M51 1458h367l362 -475l353 475h368l-581 -768v-690h-291v690zM336 1538v98h293v-98h-293zM922 1538v98h292v-98h-292z" horiz-adv-x="1548" unicode="ÿ"/><glyph d="M143 506v438q0 104 40 197.5t108.5 162t162 108.5t197.5 40h336q98 0 187.5 -36t158.5 -99v135h1456v-287h-1169v-288h608v-293h-608v-295h1169v-293h-1456v135q-70 -63 -159 -98t-187 -35h-336q-104 0 -197.5 40t-162 108.5t-108.5 161.5t-40 198zM430 506 q0 -45 17.5 -84t48 -68.5t70.5 -46t85 -16.5h439q92 0 153.5 61.5t61.5 153.5v438q0 45 -16.5 85t-46.5 70.5t-68.5 48t-83.5 17.5h-439q-47 0 -84.5 -18t-68.5 -49t-49.5 -69t-18.5 -85v-438z" horiz-adv-x="2867" unicode="Œ"/><glyph d="M143 506v438q0 104 40 197.5t108.5 162t162 108.5t197.5 40h336q98 0 187.5 -36t158.5 -99v135h1456v-287h-1169v-288h608v-293h-608v-295h1169v-293h-1456v135q-70 -63 -159 -98t-187 -35h-336q-104 0 -197.5 40t-162 108.5t-108.5 161.5t-40 198zM430 506 q0 -45 17.5 -84t48 -68.5t70.5 -46t85 -16.5h439q92 0 153.5 61.5t61.5 153.5v438q0 45 -16.5 85t-46.5 70.5t-68.5 48t-83.5 17.5h-439q-47 0 -84.5 -18t-68.5 -49t-49.5 -69t-18.5 -85v-438z" horiz-adv-x="2928" unicode="œ"/><glyph d="M51 1458h367l362 -475l353 475h368l-581 -768v-690h-291v690zM336 1538v98h293v-98h-293zM922 1538v98h292v-98h-292z" horiz-adv-x="1548" unicode="Ÿ"/><glyph d="M582 1602l247 247l248 -247l-63 -62l-185 186l-186 -186zM582 1602l247 247l248 -247l-63 -62l-185 186l-186 -186z" horiz-adv-x="1705" unicode="ˆ"/><glyph horiz-adv-x="971"/><glyph horiz-adv-x="1942"/><glyph horiz-adv-x="971"/><glyph horiz-adv-x="1942"/><glyph horiz-adv-x="647"/><glyph horiz-adv-x="485"/><glyph horiz-adv-x="323"/><glyph horiz-adv-x="323"/><glyph horiz-adv-x="242"/><glyph horiz-adv-x="388"/><glyph horiz-adv-x="107"/><glyph d="M143 524v244h973v-244h-973z" horiz-adv-x="1257" unicode="‐"/><glyph d="M143 524v244h973v-244h-973z" horiz-adv-x="1257" unicode="‑"/><glyph d="M143 524v244h973v-244h-973z" horiz-adv-x="1257" unicode="‒"/><glyph d="M143 524v244h973v-244h-973z" horiz-adv-x="1705" unicode="–"/><glyph d="M143 524v244h1456v-244h-1456z" horiz-adv-x="1705" unicode="—"/><glyph d="M145 1094v241l244 123v-364h-244z" horiz-adv-x="534" unicode="‘"/><glyph d="M145 1094v364h244v-241z" horiz-adv-x="534" unicode="’"/><glyph horiz-adv-x="1705" unicode="‚"/><glyph d="M145 1094v241l244 123v-364h-244zM510 1094v241l244 123v-364h-244z" horiz-adv-x="901" unicode="“"/><glyph d="M145 1094v364h244v-241zM510 1094v364h244v-241z" horiz-adv-x="901" unicode="”"/><glyph d="M147 729q0 76 29 142.5t78 115.5t115.5 78t142.5 29t142.5 -29t115.5 -78t78 -115.5t29 -142.5t-29 -142.5t-78 -115.5t-115.5 -77.5t-142.5 -28.5t-142.5 28.5t-115.5 77.5t-78 115.5t-29 142.5z" horiz-adv-x="1003" unicode="•"/><glyph d="M143 0v244h244v-244h-244zM670 0v244h243v-244h-243zM1196 0v244h244v-244h-244z" horiz-adv-x="1579" unicode="…"/><glyph horiz-adv-x="388"/><glyph horiz-adv-x="485"/><glyph d="M143 426v205h181q-6 49 -7 102q0 49 7 103h-181v204h242q41 92 107.5 169t152.5 132.5t187.5 87t211.5 31.5v-217q-127 0 -231 -55t-176 -148h407v-204h-499q-4 -27 -7 -51.5t-3 -51.5q0 -29 3 -53.5t7 -48.5h499v-205h-407q29 -47 74 -84t98 -64.5t113.5 -42 t121.5 -14.5v-217q-111 0 -212 32t-187 87t-153.5 133t-106.5 170h-242z" horiz-adv-x="1187" unicode="€"/><glyph d="M145 1380v74h371v-74h-149v-297h-72v297h-150zM567 1083v371h76l109 -113l112 113h74v-371h-74v265l-61 -58h2l-53 -53l-113 111v-265h-72z" horiz-adv-x="1083" unicode="™"/><glyph d="M0 0v1454h1454v-1454h-1454z" horiz-adv-x="1454" unicode="◼"/></font>
</defs>
</svg>
